<?xml version="1.0" encoding="utf-8"?>
<!-- Generator: Adobe Illustrator 17.1.0, SVG Export Plug-In . SVG Version: 6.00 Build 0)  -->
<!DOCTYPE svg PUBLIC "-//W3C//DTD SVG 1.1//EN" "http://www.w3.org/Graphics/SVG/1.1/DTD/svg11.dtd">
<svg version="1.1" id="Ebene_1" xmlns="http://www.w3.org/2000/svg" xmlns:xlink="http://www.w3.org/1999/xlink" x="0px" y="0px"
	 viewBox="0 0 73.7 78.3" enable-background="new 0 0 73.7 78.3" xml:space="preserve">
<g>
	<path fill="#FFFFFF" d="M0,0c1.9,0.1,3.5,0.3,5,1.3c2.8,1.8,4.3,4.3,4.6,7.6c0.1,0.7,0.4,0.9,1,0.9c10.9,0,52.3,0,62.2-0.1
		c0.8,0,0.8,0.4,0.8,1c0,7.3,0,25.6,0,27.4c0,0.6-0.2,1-0.8,1.1c-2.1,0.3-60.3,9.3-62.6,9.7c-0.5,0.1-0.6,0.3-0.6,0.8
		c0.1,1.7,2,3.6,3.6,4.1c2.1,0.7,4.3,0.4,6.4,0.4c17.4,0,34.8,0,52.2,0c1.7,0,1.8,0,1.8,1.8c0,0.6-0.1,1.3,0,1.9c0.1,0.8-0.3,1-1,1
		c-1.6,0-53.8,0.1-55.6,0c-1.9-0.1-3.7-0.1-5.5-0.5c-1.2-0.3-2.4-1.1-3.3-2c-2.8-2.5-3.7-5.8-3-9.4c0.3-1.9,1.5-3.5,2.9-4.8
		c0.6-0.5,0.7-1,0.6-1.8c-0.4-3-3-26.5-3.6-30.9c-0.3-2-1.4-4.2-4.2-4.6C0.1,4.6,0,4.3,0,3.7C0.1,2.5,0,1.2,0,0z"/>
	<path fill="#FFFFFF" d="M24.5,71c0.2,3.3-2.9,7.3-7.3,7.3c-4.2,0-7.4-3.5-7.3-7.5c0.1-3.3,2.6-6.9,7.3-6.9
		C21.5,64,24.3,66.9,24.5,71z"/>
	<path fill="#FFFFFF" d="M59.2,71.1c-0.2-3.4,2.8-7.2,7.3-7.2c4.5,0.1,7.1,3.3,7.3,7.1c0.1,3.5-2.9,7.3-7.3,7.3
		C62.3,78.3,59.2,75.2,59.2,71.1z"/>
</g>
</svg>
