<?xml version="1.0" encoding="utf-8"?>
<!-- Generator: Adobe Illustrator 17.1.0, SVG Export Plug-In . SVG Version: 6.00 Build 0)  -->
<!DOCTYPE svg PUBLIC "-//W3C//DTD SVG 1.1//EN" "http://www.w3.org/Graphics/SVG/1.1/DTD/svg11.dtd">
<svg version="1.1" id="Ebene_1" xmlns="http://www.w3.org/2000/svg" xmlns:xlink="http://www.w3.org/1999/xlink" x="0px" y="0px"
	 viewBox="0 0 595.3 841.9" enable-background="new 0 0 595.3 841.9" xml:space="preserve" preserveAspectRatio="xMinYMin none">
<g>
	<path d="M171.8,228.5c5.6,0.4,10.6,0.9,15.1,3.9c8.4,5.5,13.1,13.1,14,23c0.2,2.1,1.1,2.6,2.9,2.6c32.9,0,158.1-0.1,187.9-0.2
		c2.3,0,2.5,1.1,2.5,2.9c0,22,0,77.2,0,82.8c0,1.9-0.5,2.9-2.5,3.2c-6.2,0.9-182.2,28.1-189.1,29.2c-1.5,0.2-1.8,0.9-1.7,2.3
		c0.3,5.2,5.9,11,10.8,12.5c6.4,2,12.9,1.2,19.3,1.2c52.6,0.1,105.2,0.1,157.8,0.1c5.2,0,5.3,0,5.4,5.3c0.1,1.9-0.2,3.8,0,5.7
		c0.3,2.4-0.8,3-3,2.9c-4.9-0.1-162.5,0.2-167.9,0c-5.6-0.2-11.3-0.3-16.7-1.6c-3.7-0.9-7.2-3.4-10.1-6c-8.6-7.6-11.1-17.5-9.2-28.5
		c1-5.8,4.5-10.6,8.8-14.6c1.7-1.5,2-3.1,1.7-5.3c-1.3-9.1-9.2-80.1-10.9-93.2c-0.8-6.1-4.3-12.6-12.8-13.9
		c-2.1-0.3-2.4-1.2-2.4-3.1C171.9,236,171.8,232.2,171.8,228.5z"/>
	<path d="M245.7,443.1c0.7,9.9-8.7,22.1-22,22c-12.7-0.1-22.3-10.7-21.9-22.6c0.4-10,8-20.9,21.9-20.9
		C236.5,421.7,245.2,430.5,245.7,443.1z"/>
	<path d="M350.5,443.2c-0.7-10.3,8.5-21.8,21.9-21.6c13.5,0.3,21.5,10,21.9,21.5c0.4,10.6-8.7,22.1-22.2,21.9
		C359.8,464.9,350.4,455.6,350.5,443.2z"/>
</g>
</svg>
