<?xml version="1.0" encoding="utf-8"?>
<!-- Generator: Adobe Illustrator 17.1.0, SVG Export Plug-In . SVG Version: 6.00 Build 0)  -->
<!DOCTYPE svg PUBLIC "-//W3C//DTD SVG 1.1//EN" "http://www.w3.org/Graphics/SVG/1.1/DTD/svg11.dtd">
<svg version="1.1" xmlns="http://www.w3.org/2000/svg" xmlns:xlink="http://www.w3.org/1999/xlink" x="0px" y="0px"
	 viewBox="0 0 286.6 286.6" enable-background="new 0 0 286.6 286.6" xml:space="preserve">
<g id="Ebene_1">
	<circle cx="143.3" cy="143.3" r="143.3"/>
</g>
<g id="Ebene_3">
	<g>
		<path fill="#FFFFFF" d="M242.6,147.6c-13.7,8.2-87.9,51.9-92.6,54.7c-3.7,2.2-8,0.5-7.9-5.3c0-6.6,0-21.4,0-37.9
			c-26.9,15.9-69.6,41-73.1,43.2c-3.7,2.2-8,0.5-7.9-5.3c0-17.8,0-94,0.1-105.8c-0.1-4.5,3.4-8.3,9.5-5.2
			c8.9,5.2,47.2,27.5,71.4,41.8c0-17.2,0-31.9,0.1-36.6c-0.1-4.5,3.4-8.3,9.5-5.2c12.5,7.2,83.4,48.7,91,53.4
			C246.8,142,246.8,145,242.6,147.6z"/>
	</g>
</g>
</svg>
