<?xml version="1.0" encoding="utf-8"?>
<!-- Generator: Adobe Illustrator 17.1.0, SVG Export Plug-In . SVG Version: 6.00 Build 0)  -->
<!DOCTYPE svg PUBLIC "-//W3C//DTD SVG 1.1//EN" "http://www.w3.org/Graphics/SVG/1.1/DTD/svg11.dtd">
<svg version="1.1" xmlns="http://www.w3.org/2000/svg" xmlns:xlink="http://www.w3.org/1999/xlink" x="0px" y="0px"
	 viewBox="0 0 286.6 286.6" enable-background="new 0 0 286.6 286.6" xml:space="preserve" preserveAspectRatio="xMinYMin none">
<g id="Ebene_1">
	<circle cx="143.7" cy="143.3" r="143.3"/>
</g>
<g id="Ebene_3">
	<g>
		<path fill="#FFFFFF" d="M44.4,139c13.7-8.2,87.9-51.9,92.6-54.7c3.7-2.2,8-0.5,7.9,5.3c0,6.6,0,21.4,0,37.9
			c26.9-15.9,69.6-41,73.1-43.2c3.7-2.2,8-0.5,7.9,5.3c0,17.8,0,94-0.1,105.8c0.1,4.5-3.4,8.3-9.5,5.2c-8.9-5.2-47.2-27.5-71.4-41.8
			c0,17.2,0,31.9-0.1,36.6c0.1,4.5-3.4,8.3-9.5,5.2c-12.5-7.2-83.4-48.7-91-53.4C40.2,144.6,40.2,141.6,44.4,139z"/>
	</g>
</g>
</svg>
