<?xml version="1.0" encoding="utf-8"?>
<!-- Generator: Adobe Illustrator 17.1.0, SVG Export Plug-In . SVG Version: 6.00 Build 0)  -->
<!DOCTYPE svg PUBLIC "-//W3C//DTD SVG 1.1//EN" "http://www.w3.org/Graphics/SVG/1.1/DTD/svg11.dtd">
<svg version="1.1" id="Ebene_1" xmlns="http://www.w3.org/2000/svg" xmlns:xlink="http://www.w3.org/1999/xlink" x="0px" y="0px"
	 viewBox="0 0 286.6 286.6" enable-background="new 0 0 286.6 286.6" xml:space="preserve" preserveAspectRatio="xMinYMin none">
<g id="Ebene_1_1_">
	<circle cx="143.7" cy="143.3" r="143.3"/>
</g>
<g id="Ebene_3">
	<path fill="none" stroke="#FFFFFF" stroke-width="4" stroke-miterlimit="10" d="M146.9,60.4v169.9L105,188.5H71.8
		c-21.6,0-39.2-19.3-39.2-43.1s17.5-43.1,39.2-43.1H105L146.9,60.4z"/>
	<g>
		<path fill="none" stroke="#FFFFFF" stroke-width="4" stroke-miterlimit="10" d="M204.7,209.5c-4.7,0-8.5-3.8-8.5-8.5
			c0-3,1.5-5.6,3.8-7.1c2-1.6,25.9-21.9,25.9-48.1c0-28.1-25.9-47.1-26.2-47.3c-3.8-2.7-4.7-8-1.9-11.9c2.7-3.8,8-4.7,11.8-2
			c1.4,1,33.3,24.2,33.3,61.1c0,14.8-5.7,30.2-16.4,44.5c-4.2,5.6-8.3,10-11.1,12.6C209.8,208.3,207.9,209.5,204.7,209.5z"/>
	</g>
	<g>
		<path fill="none" stroke="#FFFFFF" stroke-width="4" stroke-miterlimit="10" d="M173.7,186.4c-4.7,0-8.5-3.8-8.5-8.5
			c0-3.2,1.8-6,4.4-7.4c3.5-2.3,15.6-12,15.6-22.4c0-12.4-15.6-21.7-15.7-21.8c-4.1-2.3-5.5-7.5-3.1-11.6c2.3-4.1,7.5-5.5,11.6-3.1
			c0.6,0.4,6.2,3.6,11.8,9.4c8.1,8.3,12.4,17.7,12.4,27.2c0,9.2-4.2,18.5-12.2,27.1c-3,3.2-5.9,5.7-7.9,7.2
			C178.5,185.2,176.6,186.4,173.7,186.4z"/>
	</g>
</g>
</svg>
